<svg viewBox="-16 -32 880 192" width="880" height="192" xmlns="http://www.w3.org/2000/svg"><desc>Generated with https://github.com/Platane/snk</desc><style>@keyframes c0{69.72%{fill:var(--c3)}69.74%,to{fill:var(--ce)}}@keyframes c1{.76%{fill:var(--c1)}.78%,to{fill:var(--ce)}}@keyframes c2{70.49%{fill:var(--c4)}70.51%,to{fill:var(--ce)}}@keyframes c3{15.32%{fill:var(--c1)}15.34%,to{fill:var(--ce)}}@keyframes c4{1.91%{fill:var(--c1)}1.93%,to{fill:var(--ce)}}@keyframes c5{14.55%{fill:var(--c1)}14.57%,to{fill:var(--ce)}}@keyframes c6{2.29%{fill:var(--c1)}2.31%,to{fill:var(--ce)}}@keyframes c7{73.17%{fill:var(--c4)}73.19%,to{fill:var(--ce)}}@keyframes c8{66.66%{fill:var(--c3)}66.68%,to{fill:var(--ce)}}@keyframes c9{3.82%{fill:var(--c1)}3.84%,to{fill:var(--ce)}}@keyframes ca{4.2%{fill:var(--c1)}4.22%,to{fill:var(--ce)}}@keyframes cb{9.19%{fill:var(--c1)}9.21%,to{fill:var(--ce)}}@keyframes cc{6.12%{fill:var(--c1)}6.14%,to{fill:var(--ce)}}@keyframes cd{7.65%{fill:var(--c1)}7.67%,to{fill:var(--ce)}}@keyframes ce{23.74%{fill:var(--c1)}23.76%,to{fill:var(--ce)}}@keyframes cf{50.95%{fill:var(--c2)}50.97%,to{fill:var(--ce)}}@keyframes cg{88.88%{fill:var(--c4)}88.9%,to{fill:var(--ce)}}@keyframes ch{25.66%{fill:var(--c1)}25.68%,to{fill:var(--ce)}}@keyframes ci{80.83%{fill:var(--c4)}80.85%,to{fill:var(--ce)}}@keyframes cj{81.22%{fill:var(--c4)}81.24%,to{fill:var(--ce)}}@keyframes ck{52.48%{fill:var(--c3)}52.5%,to{fill:var(--ce)}}@keyframes cl{27.58%{fill:var(--c1)}27.6%,to{fill:var(--ce)}}@keyframes cm{48.65%{fill:var(--c2)}48.67%,to{fill:var(--ce)}}@keyframes cn{46.35%{fill:var(--c2)}46.37%,to{fill:var(--ce)}}@keyframes co{45.97%{fill:var(--c2)}45.99%,to{fill:var(--ce)}}@keyframes cp{45.58%{fill:var(--c1)}45.6%,to{fill:var(--ce)}}@keyframes cq{47.5%{fill:var(--c2)}47.52%,to{fill:var(--ce)}}@keyframes cr{85.05%{fill:var(--c4)}85.07%,to{fill:var(--ce)}}@keyframes cs{84.28%{fill:var(--c4)}84.3%,to{fill:var(--ce)}}@keyframes ct{54.78%{fill:var(--c3)}54.8%,to{fill:var(--ce)}}@keyframes cu{83.51%{fill:var(--c4)}83.53%,to{fill:var(--ce)}}@keyframes cv{56.31%{fill:var(--c3)}56.33%,to{fill:var(--ce)}}@keyframes cw{31.41%{fill:var(--c1)}31.43%,to{fill:var(--ce)}}@keyframes cx{34.47%{fill:var(--c1)}34.49%,to{fill:var(--ce)}}@keyframes cy{85.81%{fill:var(--c4)}85.83%,to{fill:var(--ce)}}@keyframes cz{33.71%{fill:var(--c1)}33.73%,to{fill:var(--ce)}}@keyframes c10{32.94%{fill:var(--c1)}32.96%,to{fill:var(--ce)}}@keyframes c11{32.17%{fill:var(--c1)}32.19%,to{fill:var(--ce)}}@keyframes c12{38.69%{fill:var(--c1)}38.71%,to{fill:var(--ce)}}@keyframes c13{36.77%{fill:var(--c1)}36.79%,to{fill:var(--ce)}}@keyframes c14{37.15%{fill:var(--c1)}37.17%,to{fill:var(--ce)}}@keyframes u0{.76%{transform:scale(0,1)}.78%,1.91%{transform:scale(.05,1)}1.93%,2.29%{transform:scale(.09,1)}2.31%,3.82%{transform:scale(.14,1)}3.84%,4.2%{transform:scale(.18,1)}4.22%,6.12%{transform:scale(.23,1)}6.14%,7.65%{transform:scale(.27,1)}7.67%,9.19%{transform:scale(.32,1)}14.55%,9.21%{transform:scale(.36,1)}14.57%,15.32%{transform:scale(.41,1)}15.34%,23.74%{transform:scale(.45,1)}23.76%,25.66%{transform:scale(.5,1)}25.68%,27.58%{transform:scale(.55,1)}27.6%,31.41%{transform:scale(.59,1)}31.43%,32.17%{transform:scale(.64,1)}32.19%,32.94%{transform:scale(.68,1)}32.96%,33.71%{transform:scale(.73,1)}33.73%,34.47%{transform:scale(.77,1)}34.49%,36.77%{transform:scale(.82,1)}36.79%,37.15%{transform:scale(.86,1)}37.17%,38.69%{transform:scale(.91,1)}38.71%,45.58%{transform:scale(.95,1)}45.6%,to{transform:scale(1,1)}}@keyframes u1{45.97%{transform:scale(0,1)}45.99%,46.35%{transform:scale(.2,1)}46.37%,47.5%{transform:scale(.4,1)}47.52%,48.65%{transform:scale(.6,1)}48.67%,50.95%{transform:scale(.8,1)}50.97%,to{transform:scale(1,1)}}@keyframes u2{52.48%{transform:scale(0,1)}52.5%,54.78%{transform:scale(.2,1)}54.8%,56.31%{transform:scale(.4,1)}56.33%,66.66%{transform:scale(.6,1)}66.68%,69.72%{transform:scale(.8,1)}69.74%,to{transform:scale(1,1)}}@keyframes u3{70.49%{transform:scale(0,1)}70.51%,73.17%{transform:scale(.11,1)}73.19%,80.83%{transform:scale(.22,1)}80.85%,81.22%{transform:scale(.33,1)}81.24%,83.51%{transform:scale(.44,1)}83.53%,84.28%{transform:scale(.56,1)}84.3%,85.05%{transform:scale(.67,1)}85.07%,85.81%{transform:scale(.78,1)}85.83%,88.88%{transform:scale(.89,1)}88.9%,to{transform:scale(1,1)}}@keyframes s0{0%,99.62%{transform:translate(0,-16px)}.38%{transform:translate(0,0)}1.53%,12.26%{transform:translate(48px,0)}1.92%{transform:translate(48px,16px)}3.83%{transform:translate(128px,16px)}4.21%{transform:translate(128px,32px)}6.9%{transform:translate(240px,32px)}7.66%{transform:translate(240px,0)}14.56%{transform:translate(48px,96px)}15.33%{transform:translate(16px,96px)}15.71%{transform:translate(16px,80px)}17.62%,67.43%{transform:translate(96px,80px)}18.01%{transform:translate(96px,64px)}26.05%,49.04%{transform:translate(432px,64px)}26.44%{transform:translate(432px,48px)}26.82%,48.28%{transform:translate(448px,48px)}27.59%{transform:translate(448px,16px)}27.97%{transform:translate(432px,16px)}28.35%,44.44%{transform:translate(432px,32px)}29.12%,46.74%{transform:translate(464px,32px)}29.89%{transform:translate(464px,64px)}30.27%,57.09%{transform:translate(480px,64px)}31.03%{transform:translate(480px,96px)}32.18%{transform:translate(528px,96px)}33.72%{transform:translate(528px,32px)}34.1%{transform:translate(512px,32px)}34.48%,55.17%{transform:translate(512px,48px)}36.78%{transform:translate(608px,48px)}37.16%{transform:translate(608px,64px)}37.55%{transform:translate(592px,64px)}39.46%{transform:translate(592px,-16px)}43.3%{transform:translate(432px,-16px)}45.59%,47.13%{transform:translate(480px,32px)}45.98%{transform:translate(480px,16px)}46.36%{transform:translate(464px,16px)}47.51%,54.41%{transform:translate(480px,48px)}48.66%{transform:translate(448px,64px)}50.57%{transform:translate(432px,0)}50.96%{transform:translate(416px,0)}51.34%{transform:translate(416px,-16px)}52.11%{transform:translate(448px,-16px)}52.49%{transform:translate(448px,0)}53.26%{transform:translate(480px,0)}55.94%{transform:translate(512px,80px)}56.7%{transform:translate(480px,80px)}65.52%{transform:translate(128px,64px)}66.28%{transform:translate(128px,96px)}67.05%{transform:translate(96px,96px)}69.73%{transform:translate(0,80px)}70.11%{transform:translate(0,64px)}72.8%{transform:translate(112px,64px)}73.18%{transform:translate(112px,80px)}80.84%{transform:translate(432px,80px)}81.23%{transform:translate(432px,96px)}82.76%{transform:translate(496px,96px)}85.06%{transform:translate(496px,0)}85.82%{transform:translate(528px,0)}86.21%{transform:translate(528px,16px)}96.93%{transform:translate(80px,16px)}97.7%{transform:translate(80px,-16px)}}@keyframes s1{0%,99.62%{transform:translate(16px,-16px)}.38%{transform:translate(0,-16px)}.77%{transform:translate(0,0)}1.92%,12.64%{transform:translate(48px,0)}2.3%{transform:translate(48px,16px)}4.21%{transform:translate(128px,16px)}4.6%{transform:translate(128px,32px)}7.28%{transform:translate(240px,32px)}8.05%{transform:translate(240px,0)}14.94%{transform:translate(48px,96px)}15.71%{transform:translate(16px,96px)}16.09%{transform:translate(16px,80px)}18.01%,67.82%{transform:translate(96px,80px)}18.39%{transform:translate(96px,64px)}26.44%,49.43%{transform:translate(432px,64px)}26.82%{transform:translate(432px,48px)}27.2%,48.66%{transform:translate(448px,48px)}27.97%{transform:translate(448px,16px)}28.35%{transform:translate(432px,16px)}28.74%,44.83%{transform:translate(432px,32px)}29.5%,47.13%{transform:translate(464px,32px)}30.27%{transform:translate(464px,64px)}30.65%,57.47%{transform:translate(480px,64px)}31.42%{transform:translate(480px,96px)}32.57%{transform:translate(528px,96px)}34.1%{transform:translate(528px,32px)}34.48%{transform:translate(512px,32px)}34.87%,55.56%{transform:translate(512px,48px)}37.16%{transform:translate(608px,48px)}37.55%{transform:translate(608px,64px)}37.93%{transform:translate(592px,64px)}39.85%{transform:translate(592px,-16px)}43.68%{transform:translate(432px,-16px)}45.98%,47.51%{transform:translate(480px,32px)}46.36%{transform:translate(480px,16px)}46.74%{transform:translate(464px,16px)}47.89%,54.79%{transform:translate(480px,48px)}49.04%{transform:translate(448px,64px)}50.96%{transform:translate(432px,0)}51.34%{transform:translate(416px,0)}51.72%{transform:translate(416px,-16px)}52.49%{transform:translate(448px,-16px)}52.87%{transform:translate(448px,0)}53.64%{transform:translate(480px,0)}56.32%{transform:translate(512px,80px)}57.09%{transform:translate(480px,80px)}65.9%{transform:translate(128px,64px)}66.67%{transform:translate(128px,96px)}67.43%{transform:translate(96px,96px)}70.11%{transform:translate(0,80px)}70.5%{transform:translate(0,64px)}73.18%{transform:translate(112px,64px)}73.56%{transform:translate(112px,80px)}81.23%{transform:translate(432px,80px)}81.61%{transform:translate(432px,96px)}83.14%{transform:translate(496px,96px)}85.44%{transform:translate(496px,0)}86.21%{transform:translate(528px,0)}86.59%{transform:translate(528px,16px)}97.32%{transform:translate(80px,16px)}98.08%{transform:translate(80px,-16px)}}@keyframes s2{0%,99.62%{transform:translate(32px,-16px)}.77%{transform:translate(0,-16px)}1.15%{transform:translate(0,0)}13.03%,2.3%{transform:translate(48px,0)}2.68%{transform:translate(48px,16px)}4.6%{transform:translate(128px,16px)}4.98%{transform:translate(128px,32px)}7.66%{transform:translate(240px,32px)}8.43%{transform:translate(240px,0)}15.33%{transform:translate(48px,96px)}16.09%{transform:translate(16px,96px)}16.48%{transform:translate(16px,80px)}18.39%,68.2%{transform:translate(96px,80px)}18.77%{transform:translate(96px,64px)}26.82%,49.81%{transform:translate(432px,64px)}27.2%{transform:translate(432px,48px)}27.59%,49.04%{transform:translate(448px,48px)}28.35%{transform:translate(448px,16px)}28.74%{transform:translate(432px,16px)}29.12%,45.21%{transform:translate(432px,32px)}29.89%,47.51%{transform:translate(464px,32px)}30.65%{transform:translate(464px,64px)}31.03%,57.85%{transform:translate(480px,64px)}31.8%{transform:translate(480px,96px)}32.95%{transform:translate(528px,96px)}34.48%{transform:translate(528px,32px)}34.87%{transform:translate(512px,32px)}35.25%,55.94%{transform:translate(512px,48px)}37.55%{transform:translate(608px,48px)}37.93%{transform:translate(608px,64px)}38.31%{transform:translate(592px,64px)}40.23%{transform:translate(592px,-16px)}44.06%{transform:translate(432px,-16px)}46.36%,47.89%{transform:translate(480px,32px)}46.74%{transform:translate(480px,16px)}47.13%{transform:translate(464px,16px)}48.28%,55.17%{transform:translate(480px,48px)}49.43%{transform:translate(448px,64px)}51.34%{transform:translate(432px,0)}51.72%{transform:translate(416px,0)}52.11%{transform:translate(416px,-16px)}52.87%{transform:translate(448px,-16px)}53.26%{transform:translate(448px,0)}54.02%{transform:translate(480px,0)}56.7%{transform:translate(512px,80px)}57.47%{transform:translate(480px,80px)}66.28%{transform:translate(128px,64px)}67.05%{transform:translate(128px,96px)}67.82%{transform:translate(96px,96px)}70.5%{transform:translate(0,80px)}70.88%{transform:translate(0,64px)}73.56%{transform:translate(112px,64px)}73.95%{transform:translate(112px,80px)}81.61%{transform:translate(432px,80px)}81.99%{transform:translate(432px,96px)}83.52%{transform:translate(496px,96px)}85.82%{transform:translate(496px,0)}86.59%{transform:translate(528px,0)}86.97%{transform:translate(528px,16px)}97.7%{transform:translate(80px,16px)}98.47%{transform:translate(80px,-16px)}}@keyframes s3{0%,99.62%{transform:translate(48px,-16px)}1.15%{transform:translate(0,-16px)}1.53%{transform:translate(0,0)}13.41%,2.68%{transform:translate(48px,0)}3.07%{transform:translate(48px,16px)}4.98%{transform:translate(128px,16px)}5.36%{transform:translate(128px,32px)}8.05%{transform:translate(240px,32px)}8.81%{transform:translate(240px,0)}15.71%{transform:translate(48px,96px)}16.48%{transform:translate(16px,96px)}16.86%{transform:translate(16px,80px)}18.77%,68.58%{transform:translate(96px,80px)}19.16%{transform:translate(96px,64px)}27.2%,50.19%{transform:translate(432px,64px)}27.59%{transform:translate(432px,48px)}27.97%,49.43%{transform:translate(448px,48px)}28.74%{transform:translate(448px,16px)}29.12%{transform:translate(432px,16px)}29.5%,45.59%{transform:translate(432px,32px)}30.27%,47.89%{transform:translate(464px,32px)}31.03%{transform:translate(464px,64px)}31.42%,58.24%{transform:translate(480px,64px)}32.18%{transform:translate(480px,96px)}33.33%{transform:translate(528px,96px)}34.87%{transform:translate(528px,32px)}35.25%{transform:translate(512px,32px)}35.63%,56.32%{transform:translate(512px,48px)}37.93%{transform:translate(608px,48px)}38.31%{transform:translate(608px,64px)}38.7%{transform:translate(592px,64px)}40.61%{transform:translate(592px,-16px)}44.44%{transform:translate(432px,-16px)}46.74%,48.28%{transform:translate(480px,32px)}47.13%{transform:translate(480px,16px)}47.51%{transform:translate(464px,16px)}48.66%,55.56%{transform:translate(480px,48px)}49.81%{transform:translate(448px,64px)}51.72%{transform:translate(432px,0)}52.11%{transform:translate(416px,0)}52.49%{transform:translate(416px,-16px)}53.26%{transform:translate(448px,-16px)}53.64%{transform:translate(448px,0)}54.41%{transform:translate(480px,0)}57.09%{transform:translate(512px,80px)}57.85%{transform:translate(480px,80px)}66.67%{transform:translate(128px,64px)}67.43%{transform:translate(128px,96px)}68.2%{transform:translate(96px,96px)}70.88%{transform:translate(0,80px)}71.26%{transform:translate(0,64px)}73.95%{transform:translate(112px,64px)}74.33%{transform:translate(112px,80px)}81.99%{transform:translate(432px,80px)}82.38%{transform:translate(432px,96px)}83.91%{transform:translate(496px,96px)}86.21%{transform:translate(496px,0)}86.97%{transform:translate(528px,0)}87.36%{transform:translate(528px,16px)}98.08%{transform:translate(80px,16px)}98.85%{transform:translate(80px,-16px)}}:root{--cb:#1b1f230a;--cs:purple;--ce:#ebedf0;--c0:#ebedf0;--c1:#9be9a8;--c2:#40c463;--c3:#30a14e;--c4:#216e39}@media (prefers-color-scheme:dark){:root{--cb:#1b1f230a;--cs:purple;--ce:#161b22;--c1:#01311f;--c2:#034525;--c3:#0f6d31;--c4:#00c647}}.c{shape-rendering:geometricPrecision;fill:var(--ce);stroke-width:1px;stroke:var(--cb);animation:none 26100ms linear infinite}.c.c0{fill:var(--c3);animation-name:c0}.c.c1{fill:var(--c1);animation-name:c1}.c.c2{fill:var(--c4);animation-name:c2}.c.c3{fill:var(--c1);animation-name:c3}.c.c4,.c.c5,.c.c6{fill:var(--c1);animation-name:c4}.c.c5,.c.c6{animation-name:c5}.c.c6{animation-name:c6}.c.c7{fill:var(--c4);animation-name:c7}.c.c8{fill:var(--c3);animation-name:c8}.c.c9,.c.ca,.c.cb{fill:var(--c1);animation-name:c9}.c.ca,.c.cb{animation-name:ca}.c.cb{animation-name:cb}.c.cc,.c.cd,.c.ce{fill:var(--c1);animation-name:cc}.c.cd,.c.ce{animation-name:cd}.c.ce{animation-name:ce}.c.cf{fill:var(--c2);animation-name:cf}.c.cg{fill:var(--c4);animation-name:cg}.c.ch{fill:var(--c1);animation-name:ch}.c.ci,.c.cj{fill:var(--c4);animation-name:ci}.c.cj{animation-name:cj}.c.ck{fill:var(--c3);animation-name:ck}.c.cl{fill:var(--c1);animation-name:cl}.c.cm,.c.cn,.c.co{fill:var(--c2);animation-name:cm}.c.cn,.c.co{animation-name:cn}.c.co{animation-name:co}.c.cp{fill:var(--c1);animation-name:cp}.c.cq{fill:var(--c2);animation-name:cq}.c.cr,.c.cs{fill:var(--c4);animation-name:cr}.c.cs{animation-name:cs}.c.ct{fill:var(--c3);animation-name:ct}.c.cu{fill:var(--c4);animation-name:cu}.c.cv{fill:var(--c3);animation-name:cv}.c.cw,.c.cx{fill:var(--c1);animation-name:cw}.c.cx{animation-name:cx}.c.cy{fill:var(--c4);animation-name:cy}.c.c10,.c.c11,.c.cz{fill:var(--c1);animation-name:cz}.c.c10,.c.c11{animation-name:c10}.c.c11{animation-name:c11}.c.c12,.c.c13,.c.c14{fill:var(--c1);animation-name:c12}.c.c13,.c.c14{animation-name:c13}.c.c14{animation-name:c14}.s,.u{animation:none linear 26100ms infinite}.u,.u.u0{transform-origin:0 0}.u{transform:scale(0,1)}.u.u0{fill:var(--c1);animation-name:u0}.u.u1{fill:var(--c2);animation-name:u1;transform-origin:455px 0}.u.u2{fill:var(--c3);animation-name:u2;transform-origin:558.4px 0}.u.u3{fill:var(--c4);animation-name:u3;transform-origin:661.9px 0}.s{shape-rendering:geometricPrecision;fill:var(--cs)}.s.s0{transform:translate(0,-16px);animation-name:s0}.s.s1{transform:translate(16px,-16px);animation-name:s1}.s.s2{transform:translate(32px,-16px);animation-name:s2}.s.s3{transform:translate(48px,-16px);animation-name:s3}</style><rect class="c" x="2" y="2" rx="2" ry="2" width="12" height="12"/><rect class="c" x="2" y="18" rx="2" ry="2" width="12" height="12"/><rect class="c" x="2" y="34" rx="2" ry="2" width="12" height="12"/><rect class="c" x="2" y="50" rx="2" ry="2" width="12" height="12"/><rect class="c" x="2" y="66" rx="2" ry="2" width="12" height="12"/><rect class="c c0" x="2" y="82" rx="2" ry="2" width="12" height="12"/><rect class="c" x="2" y="98" rx="2" ry="2" width="12" height="12"/><rect class="c c1" x="18" y="2" rx="2" ry="2" width="12" height="12"/><rect class="c" x="18" y="18" rx="2" ry="2" width="12" height="12"/><rect class="c" x="18" y="34" rx="2" ry="2" width="12" height="12"/><rect class="c" x="18" y="50" rx="2" ry="2" width="12" height="12"/><rect class="c c2" x="18" y="66" rx="2" ry="2" width="12" height="12"/><rect class="c" x="18" y="82" rx="2" ry="2" width="12" height="12"/><rect class="c c3" x="18" y="98" rx="2" ry="2" width="12" height="12"/><rect class="c" x="34" y="2" rx="2" ry="2" width="12" height="12"/><rect class="c" x="34" y="18" rx="2" ry="2" width="12" height="12"/><rect class="c" x="34" y="34" rx="2" ry="2" width="12" height="12"/><rect class="c" x="34" y="50" rx="2" ry="2" width="12" height="12"/><rect class="c" x="34" y="66" rx="2" ry="2" width="12" height="12"/><rect class="c" x="34" y="82" rx="2" ry="2" width="12" height="12"/><rect class="c" x="34" y="98" rx="2" ry="2" width="12" height="12"/><rect class="c" x="50" y="2" rx="2" ry="2" width="12" height="12"/><rect class="c c4" x="50" y="18" rx="2" ry="2" width="12" height="12"/><rect class="c" x="50" y="34" rx="2" ry="2" width="12" height="12"/><rect class="c" x="50" y="50" rx="2" ry="2" width="12" height="12"/><rect class="c" x="50" y="66" rx="2" ry="2" width="12" height="12"/><rect class="c" x="50" y="82" rx="2" ry="2" width="12" height="12"/><rect class="c c5" x="50" y="98" rx="2" ry="2" width="12" height="12"/><rect class="c" x="66" y="2" rx="2" ry="2" width="12" height="12"/><rect class="c c6" x="66" y="18" rx="2" ry="2" width="12" height="12"/><rect class="c" x="66" y="34" rx="2" ry="2" width="12" height="12"/><rect class="c" x="66" y="50" rx="2" ry="2" width="12" height="12"/><rect class="c" x="66" y="66" rx="2" ry="2" width="12" height="12"/><rect class="c" x="66" y="82" rx="2" ry="2" width="12" height="12"/><rect class="c" x="66" y="98" rx="2" ry="2" width="12" height="12"/><rect class="c" x="82" y="2" rx="2" ry="2" width="12" height="12"/><rect class="c" x="82" y="18" rx="2" ry="2" width="12" height="12"/><rect class="c" x="82" y="34" rx="2" ry="2" width="12" height="12"/><rect class="c" x="82" y="50" rx="2" ry="2" width="12" height="12"/><rect class="c" x="82" y="66" rx="2" ry="2" width="12" height="12"/><rect class="c" x="82" y="82" rx="2" ry="2" width="12" height="12"/><rect class="c" x="82" y="98" rx="2" ry="2" width="12" height="12"/><rect class="c" x="98" y="2" rx="2" ry="2" width="12" height="12"/><rect class="c" x="98" y="18" rx="2" ry="2" width="12" height="12"/><rect class="c" x="98" y="34" rx="2" ry="2" width="12" height="12"/><rect class="c" x="98" y="50" rx="2" ry="2" width="12" height="12"/><rect class="c" x="98" y="66" rx="2" ry="2" width="12" height="12"/><rect class="c" x="98" y="82" rx="2" ry="2" width="12" height="12"/><rect class="c" x="98" y="98" rx="2" ry="2" width="12" height="12"/><rect class="c" x="114" y="2" rx="2" ry="2" width="12" height="12"/><rect class="c" x="114" y="18" rx="2" ry="2" width="12" height="12"/><rect class="c" x="114" y="34" rx="2" ry="2" width="12" height="12"/><rect class="c" x="114" y="50" rx="2" ry="2" width="12" height="12"/><rect class="c" x="114" y="66" rx="2" ry="2" width="12" height="12"/><rect class="c c7" x="114" y="82" rx="2" ry="2" width="12" height="12"/><rect class="c c8" x="114" y="98" rx="2" ry="2" width="12" height="12"/><rect class="c" x="130" y="2" rx="2" ry="2" width="12" height="12"/><rect class="c c9" x="130" y="18" rx="2" ry="2" width="12" height="12"/><rect class="c ca" x="130" y="34" rx="2" ry="2" width="12" height="12"/><rect class="c" x="130" y="50" rx="2" ry="2" width="12" height="12"/><rect class="c" x="130" y="66" rx="2" ry="2" width="12" height="12"/><rect class="c" x="130" y="82" rx="2" ry="2" width="12" height="12"/><rect class="c" x="130" y="98" rx="2" ry="2" width="12" height="12"/><rect class="c" x="146" y="2" rx="2" ry="2" width="12" height="12"/><rect class="c" x="146" y="18" rx="2" ry="2" width="12" height="12"/><rect class="c" x="146" y="34" rx="2" ry="2" width="12" height="12"/><rect class="c" x="146" y="50" rx="2" ry="2" width="12" height="12"/><rect class="c" x="146" y="66" rx="2" ry="2" width="12" height="12"/><rect class="c" x="146" y="82" rx="2" ry="2" width="12" height="12"/><rect class="c" x="146" y="98" rx="2" ry="2" width="12" height="12"/><rect class="c" x="162" y="2" rx="2" ry="2" width="12" height="12"/><rect class="c" x="162" y="18" rx="2" ry="2" width="12" height="12"/><rect class="c" x="162" y="34" rx="2" ry="2" width="12" height="12"/><rect class="c" x="162" y="50" rx="2" ry="2" width="12" height="12"/><rect class="c" x="162" y="66" rx="2" ry="2" width="12" height="12"/><rect class="c" x="162" y="82" rx="2" ry="2" width="12" height="12"/><rect class="c" x="162" y="98" rx="2" ry="2" width="12" height="12"/><rect class="c cb" x="178" y="2" rx="2" ry="2" width="12" height="12"/><rect class="c" x="178" y="18" rx="2" ry="2" width="12" height="12"/><rect class="c" x="178" y="34" rx="2" ry="2" width="12" height="12"/><rect class="c" x="178" y="50" rx="2" ry="2" width="12" height="12"/><rect class="c" x="178" y="66" rx="2" ry="2" width="12" height="12"/><rect class="c" x="178" y="82" rx="2" ry="2" width="12" height="12"/><rect class="c" x="178" y="98" rx="2" ry="2" width="12" height="12"/><rect class="c" x="194" y="2" rx="2" ry="2" width="12" height="12"/><rect class="c" x="194" y="18" rx="2" ry="2" width="12" height="12"/><rect class="c" x="194" y="34" rx="2" ry="2" width="12" height="12"/><rect class="c" x="194" y="50" rx="2" ry="2" width="12" height="12"/><rect class="c" x="194" y="66" rx="2" ry="2" width="12" height="12"/><rect class="c" x="194" y="82" rx="2" ry="2" width="12" height="12"/><rect class="c" x="194" y="98" rx="2" ry="2" width="12" height="12"/><rect class="c" x="210" y="2" rx="2" ry="2" width="12" height="12"/><rect class="c" x="210" y="18" rx="2" ry="2" width="12" height="12"/><rect class="c cc" x="210" y="34" rx="2" ry="2" width="12" height="12"/><rect class="c" x="210" y="50" rx="2" ry="2" width="12" height="12"/><rect class="c" x="210" y="66" rx="2" ry="2" width="12" height="12"/><rect class="c" x="210" y="82" rx="2" ry="2" width="12" height="12"/><rect class="c" x="210" y="98" rx="2" ry="2" width="12" height="12"/><rect class="c" x="226" y="2" rx="2" ry="2" width="12" height="12"/><rect class="c" x="226" y="18" rx="2" ry="2" width="12" height="12"/><rect class="c" x="226" y="34" rx="2" ry="2" width="12" height="12"/><rect class="c" x="226" y="50" rx="2" ry="2" width="12" height="12"/><rect class="c" x="226" y="66" rx="2" ry="2" width="12" height="12"/><rect class="c" x="226" y="82" rx="2" ry="2" width="12" height="12"/><rect class="c" x="226" y="98" rx="2" ry="2" width="12" height="12"/><rect class="c cd" x="242" y="2" rx="2" ry="2" width="12" height="12"/><rect class="c" x="242" y="18" rx="2" ry="2" width="12" height="12"/><rect class="c" x="242" y="34" rx="2" ry="2" width="12" height="12"/><rect class="c" x="242" y="50" rx="2" ry="2" width="12" height="12"/><rect class="c" x="242" y="66" rx="2" ry="2" width="12" height="12"/><rect class="c" x="242" y="82" rx="2" ry="2" width="12" height="12"/><rect class="c" x="242" y="98" rx="2" ry="2" width="12" height="12"/><rect class="c" x="258" y="2" rx="2" ry="2" width="12" height="12"/><rect class="c" x="258" y="18" rx="2" ry="2" width="12" height="12"/><rect class="c" x="258" y="34" rx="2" ry="2" width="12" height="12"/><rect class="c" x="258" y="50" rx="2" ry="2" width="12" height="12"/><rect class="c" x="258" y="66" rx="2" ry="2" width="12" height="12"/><rect class="c" x="258" y="82" rx="2" ry="2" width="12" height="12"/><rect class="c" x="258" y="98" rx="2" ry="2" width="12" height="12"/><rect class="c" x="274" y="2" rx="2" ry="2" width="12" height="12"/><rect class="c" x="274" y="18" rx="2" ry="2" width="12" height="12"/><rect class="c" x="274" y="34" rx="2" ry="2" width="12" height="12"/><rect class="c" x="274" y="50" rx="2" ry="2" width="12" height="12"/><rect class="c" x="274" y="66" rx="2" ry="2" width="12" height="12"/><rect class="c" x="274" y="82" rx="2" ry="2" width="12" height="12"/><rect class="c" x="274" y="98" rx="2" ry="2" width="12" height="12"/><rect class="c" x="290" y="2" rx="2" ry="2" width="12" height="12"/><rect class="c" x="290" y="18" rx="2" ry="2" width="12" height="12"/><rect class="c" x="290" y="34" rx="2" ry="2" width="12" height="12"/><rect class="c" x="290" y="50" rx="2" ry="2" width="12" height="12"/><rect class="c" x="290" y="66" rx="2" ry="2" width="12" height="12"/><rect class="c" x="290" y="82" rx="2" ry="2" width="12" height="12"/><rect class="c" x="290" y="98" rx="2" ry="2" width="12" height="12"/><rect class="c" x="306" y="2" rx="2" ry="2" width="12" height="12"/><rect class="c" x="306" y="18" rx="2" ry="2" width="12" height="12"/><rect class="c" x="306" y="34" rx="2" ry="2" width="12" height="12"/><rect class="c" x="306" y="50" rx="2" ry="2" width="12" height="12"/><rect class="c" x="306" y="66" rx="2" ry="2" width="12" height="12"/><rect class="c" x="306" y="82" rx="2" ry="2" width="12" height="12"/><rect class="c" x="306" y="98" rx="2" ry="2" width="12" height="12"/><rect class="c" x="322" y="2" rx="2" ry="2" width="12" height="12"/><rect class="c" x="322" y="18" rx="2" ry="2" width="12" height="12"/><rect class="c" x="322" y="34" rx="2" ry="2" width="12" height="12"/><rect class="c" x="322" y="50" rx="2" ry="2" width="12" height="12"/><rect class="c" x="322" y="66" rx="2" ry="2" width="12" height="12"/><rect class="c" x="322" y="82" rx="2" ry="2" width="12" height="12"/><rect class="c" x="322" y="98" rx="2" ry="2" width="12" height="12"/><rect class="c" x="338" y="2" rx="2" ry="2" width="12" height="12"/><rect class="c" x="338" y="18" rx="2" ry="2" width="12" height="12"/><rect class="c" x="338" y="34" rx="2" ry="2" width="12" height="12"/><rect class="c" x="338" y="50" rx="2" ry="2" width="12" height="12"/><rect class="c ce" x="338" y="66" rx="2" ry="2" width="12" height="12"/><rect class="c" x="338" y="82" rx="2" ry="2" width="12" height="12"/><rect class="c" x="338" y="98" rx="2" ry="2" width="12" height="12"/><rect class="c" x="354" y="2" rx="2" ry="2" width="12" height="12"/><rect class="c" x="354" y="18" rx="2" ry="2" width="12" height="12"/><rect class="c" x="354" y="34" rx="2" ry="2" width="12" height="12"/><rect class="c" x="354" y="50" rx="2" ry="2" width="12" height="12"/><rect class="c" x="354" y="66" rx="2" ry="2" width="12" height="12"/><rect class="c" x="354" y="82" rx="2" ry="2" width="12" height="12"/><rect class="c" x="354" y="98" rx="2" ry="2" width="12" height="12"/><rect class="c" x="370" y="2" rx="2" ry="2" width="12" height="12"/><rect class="c" x="370" y="18" rx="2" ry="2" width="12" height="12"/><rect class="c" x="370" y="34" rx="2" ry="2" width="12" height="12"/><rect class="c" x="370" y="50" rx="2" ry="2" width="12" height="12"/><rect class="c" x="370" y="66" rx="2" ry="2" width="12" height="12"/><rect class="c" x="370" y="82" rx="2" ry="2" width="12" height="12"/><rect class="c" x="370" y="98" rx="2" ry="2" width="12" height="12"/><rect class="c" x="386" y="2" rx="2" ry="2" width="12" height="12"/><rect class="c" x="386" y="18" rx="2" ry="2" width="12" height="12"/><rect class="c" x="386" y="34" rx="2" ry="2" width="12" height="12"/><rect class="c" x="386" y="50" rx="2" ry="2" width="12" height="12"/><rect class="c" x="386" y="66" rx="2" ry="2" width="12" height="12"/><rect class="c" x="386" y="82" rx="2" ry="2" width="12" height="12"/><rect class="c" x="386" y="98" rx="2" ry="2" width="12" height="12"/><rect class="c" x="402" y="2" rx="2" ry="2" width="12" height="12"/><rect class="c" x="402" y="18" rx="2" ry="2" width="12" height="12"/><rect class="c" x="402" y="34" rx="2" ry="2" width="12" height="12"/><rect class="c" x="402" y="50" rx="2" ry="2" width="12" height="12"/><rect class="c" x="402" y="66" rx="2" ry="2" width="12" height="12"/><rect class="c" x="402" y="82" rx="2" ry="2" width="12" height="12"/><rect class="c" x="402" y="98" rx="2" ry="2" width="12" height="12"/><rect class="c cf" x="418" y="2" rx="2" ry="2" width="12" height="12"/><rect class="c cg" x="418" y="18" rx="2" ry="2" width="12" height="12"/><rect class="c" x="418" y="34" rx="2" ry="2" width="12" height="12"/><rect class="c" x="418" y="50" rx="2" ry="2" width="12" height="12"/><rect class="c ch" x="418" y="66" rx="2" ry="2" width="12" height="12"/><rect class="c" x="418" y="82" rx="2" ry="2" width="12" height="12"/><rect class="c" x="418" y="98" rx="2" ry="2" width="12" height="12"/><rect class="c" x="434" y="2" rx="2" ry="2" width="12" height="12"/><rect class="c" x="434" y="18" rx="2" ry="2" width="12" height="12"/><rect class="c" x="434" y="34" rx="2" ry="2" width="12" height="12"/><rect class="c" x="434" y="50" rx="2" ry="2" width="12" height="12"/><rect class="c" x="434" y="66" rx="2" ry="2" width="12" height="12"/><rect class="c ci" x="434" y="82" rx="2" ry="2" width="12" height="12"/><rect class="c cj" x="434" y="98" rx="2" ry="2" width="12" height="12"/><rect class="c ck" x="450" y="2" rx="2" ry="2" width="12" height="12"/><rect class="c cl" x="450" y="18" rx="2" ry="2" width="12" height="12"/><rect class="c" x="450" y="34" rx="2" ry="2" width="12" height="12"/><rect class="c" x="450" y="50" rx="2" ry="2" width="12" height="12"/><rect class="c cm" x="450" y="66" rx="2" ry="2" width="12" height="12"/><rect class="c" x="450" y="82" rx="2" ry="2" width="12" height="12"/><rect class="c" x="450" y="98" rx="2" ry="2" width="12" height="12"/><rect class="c" x="466" y="2" rx="2" ry="2" width="12" height="12"/><rect class="c cn" x="466" y="18" rx="2" ry="2" width="12" height="12"/><rect class="c" x="466" y="34" rx="2" ry="2" width="12" height="12"/><rect class="c" x="466" y="50" rx="2" ry="2" width="12" height="12"/><rect class="c" x="466" y="66" rx="2" ry="2" width="12" height="12"/><rect class="c" x="466" y="82" rx="2" ry="2" width="12" height="12"/><rect class="c" x="466" y="98" rx="2" ry="2" width="12" height="12"/><rect class="c" x="482" y="2" rx="2" ry="2" width="12" height="12"/><rect class="c co" x="482" y="18" rx="2" ry="2" width="12" height="12"/><rect class="c cp" x="482" y="34" rx="2" ry="2" width="12" height="12"/><rect class="c cq" x="482" y="50" rx="2" ry="2" width="12" height="12"/><rect class="c" x="482" y="66" rx="2" ry="2" width="12" height="12"/><rect class="c" x="482" y="82" rx="2" ry="2" width="12" height="12"/><rect class="c" x="482" y="98" rx="2" ry="2" width="12" height="12"/><rect class="c cr" x="498" y="2" rx="2" ry="2" width="12" height="12"/><rect class="c" x="498" y="18" rx="2" ry="2" width="12" height="12"/><rect class="c cs" x="498" y="34" rx="2" ry="2" width="12" height="12"/><rect class="c ct" x="498" y="50" rx="2" ry="2" width="12" height="12"/><rect class="c cu" x="498" y="66" rx="2" ry="2" width="12" height="12"/><rect class="c cv" x="498" y="82" rx="2" ry="2" width="12" height="12"/><rect class="c cw" x="498" y="98" rx="2" ry="2" width="12" height="12"/><rect class="c" x="514" y="2" rx="2" ry="2" width="12" height="12"/><rect class="c" x="514" y="18" rx="2" ry="2" width="12" height="12"/><rect class="c" x="514" y="34" rx="2" ry="2" width="12" height="12"/><rect class="c cx" x="514" y="50" rx="2" ry="2" width="12" height="12"/><rect class="c" x="514" y="66" rx="2" ry="2" width="12" height="12"/><rect class="c" x="514" y="82" rx="2" ry="2" width="12" height="12"/><rect class="c" x="514" y="98" rx="2" ry="2" width="12" height="12"/><rect class="c cy" x="530" y="2" rx="2" ry="2" width="12" height="12"/><rect class="c" x="530" y="18" rx="2" ry="2" width="12" height="12"/><rect class="c cz" x="530" y="34" rx="2" ry="2" width="12" height="12"/><rect class="c" x="530" y="50" rx="2" ry="2" width="12" height="12"/><rect class="c c10" x="530" y="66" rx="2" ry="2" width="12" height="12"/><rect class="c" x="530" y="82" rx="2" ry="2" width="12" height="12"/><rect class="c c11" x="530" y="98" rx="2" ry="2" width="12" height="12"/><rect class="c" x="546" y="2" rx="2" ry="2" width="12" height="12"/><rect class="c" x="546" y="18" rx="2" ry="2" width="12" height="12"/><rect class="c" x="546" y="34" rx="2" ry="2" width="12" height="12"/><rect class="c" x="546" y="50" rx="2" ry="2" width="12" height="12"/><rect class="c" x="546" y="66" rx="2" ry="2" width="12" height="12"/><rect class="c" x="546" y="82" rx="2" ry="2" width="12" height="12"/><rect class="c" x="546" y="98" rx="2" ry="2" width="12" height="12"/><rect class="c" x="562" y="2" rx="2" ry="2" width="12" height="12"/><rect class="c" x="562" y="18" rx="2" ry="2" width="12" height="12"/><rect class="c" x="562" y="34" rx="2" ry="2" width="12" height="12"/><rect class="c" x="562" y="50" rx="2" ry="2" width="12" height="12"/><rect class="c" x="562" y="66" rx="2" ry="2" width="12" height="12"/><rect class="c" x="562" y="82" rx="2" ry="2" width="12" height="12"/><rect class="c" x="562" y="98" rx="2" ry="2" width="12" height="12"/><rect class="c" x="578" y="2" rx="2" ry="2" width="12" height="12"/><rect class="c" x="578" y="18" rx="2" ry="2" width="12" height="12"/><rect class="c" x="578" y="34" rx="2" ry="2" width="12" height="12"/><rect class="c" x="578" y="50" rx="2" ry="2" width="12" height="12"/><rect class="c" x="578" y="66" rx="2" ry="2" width="12" height="12"/><rect class="c" x="578" y="82" rx="2" ry="2" width="12" height="12"/><rect class="c" x="578" y="98" rx="2" ry="2" width="12" height="12"/><rect class="c" x="594" y="2" rx="2" ry="2" width="12" height="12"/><rect class="c c12" x="594" y="18" rx="2" ry="2" width="12" height="12"/><rect class="c" x="594" y="34" rx="2" ry="2" width="12" height="12"/><rect class="c" x="594" y="50" rx="2" ry="2" width="12" height="12"/><rect class="c" x="594" y="66" rx="2" ry="2" width="12" height="12"/><rect class="c" x="594" y="82" rx="2" ry="2" width="12" height="12"/><rect class="c" x="594" y="98" rx="2" ry="2" width="12" height="12"/><rect class="c" x="610" y="2" rx="2" ry="2" width="12" height="12"/><rect class="c" x="610" y="18" rx="2" ry="2" width="12" height="12"/><rect class="c" x="610" y="34" rx="2" ry="2" width="12" height="12"/><rect class="c c13" x="610" y="50" rx="2" ry="2" width="12" height="12"/><rect class="c c14" x="610" y="66" rx="2" ry="2" width="12" height="12"/><rect class="c" x="610" y="82" rx="2" ry="2" width="12" height="12"/><rect class="c" x="610" y="98" rx="2" ry="2" width="12" height="12"/><rect class="c" x="626" y="2" rx="2" ry="2" width="12" height="12"/><rect class="c" x="626" y="18" rx="2" ry="2" width="12" height="12"/><rect class="c" x="626" y="34" rx="2" ry="2" width="12" height="12"/><rect class="c" x="626" y="50" rx="2" ry="2" width="12" height="12"/><rect class="c" x="626" y="66" rx="2" ry="2" width="12" height="12"/><rect class="c" x="626" y="82" rx="2" ry="2" width="12" height="12"/><rect class="c" x="626" y="98" rx="2" ry="2" width="12" height="12"/><rect class="c" x="642" y="2" rx="2" ry="2" width="12" height="12"/><rect class="c" x="642" y="18" rx="2" ry="2" width="12" height="12"/><rect class="c" x="642" y="34" rx="2" ry="2" width="12" height="12"/><rect class="c" x="642" y="50" rx="2" ry="2" width="12" height="12"/><rect class="c" x="642" y="66" rx="2" ry="2" width="12" height="12"/><rect class="c" x="642" y="82" rx="2" ry="2" width="12" height="12"/><rect class="c" x="642" y="98" rx="2" ry="2" width="12" height="12"/><rect class="c" x="658" y="2" rx="2" ry="2" width="12" height="12"/><rect class="c" x="658" y="18" rx="2" ry="2" width="12" height="12"/><rect class="c" x="658" y="34" rx="2" ry="2" width="12" height="12"/><rect class="c" x="658" y="50" rx="2" ry="2" width="12" height="12"/><rect class="c" x="658" y="66" rx="2" ry="2" width="12" height="12"/><rect class="c" x="658" y="82" rx="2" ry="2" width="12" height="12"/><rect class="c" x="658" y="98" rx="2" ry="2" width="12" height="12"/><rect class="c" x="674" y="2" rx="2" ry="2" width="12" height="12"/><rect class="c" x="674" y="18" rx="2" ry="2" width="12" height="12"/><rect class="c" x="674" y="34" rx="2" ry="2" width="12" height="12"/><rect class="c" x="674" y="50" rx="2" ry="2" width="12" height="12"/><rect class="c" x="674" y="66" rx="2" ry="2" width="12" height="12"/><rect class="c" x="674" y="82" rx="2" ry="2" width="12" height="12"/><rect class="c" x="674" y="98" rx="2" ry="2" width="12" height="12"/><rect class="c" x="690" y="2" rx="2" ry="2" width="12" height="12"/><rect class="c" x="690" y="18" rx="2" ry="2" width="12" height="12"/><rect class="c" x="690" y="34" rx="2" ry="2" width="12" height="12"/><rect class="c" x="690" y="50" rx="2" ry="2" width="12" height="12"/><rect class="c" x="690" y="66" rx="2" ry="2" width="12" height="12"/><rect class="c" x="690" y="82" rx="2" ry="2" width="12" height="12"/><rect class="c" x="690" y="98" rx="2" ry="2" width="12" height="12"/><rect class="c" x="706" y="2" rx="2" ry="2" width="12" height="12"/><rect class="c" x="706" y="18" rx="2" ry="2" width="12" height="12"/><rect class="c" x="706" y="34" rx="2" ry="2" width="12" height="12"/><rect class="c" x="706" y="50" rx="2" ry="2" width="12" height="12"/><rect class="c" x="706" y="66" rx="2" ry="2" width="12" height="12"/><rect class="c" x="706" y="82" rx="2" ry="2" width="12" height="12"/><rect class="c" x="706" y="98" rx="2" ry="2" width="12" height="12"/><rect class="c" x="722" y="2" rx="2" ry="2" width="12" height="12"/><rect class="c" x="722" y="18" rx="2" ry="2" width="12" height="12"/><rect class="c" x="722" y="34" rx="2" ry="2" width="12" height="12"/><rect class="c" x="722" y="50" rx="2" ry="2" width="12" height="12"/><rect class="c" x="722" y="66" rx="2" ry="2" width="12" height="12"/><rect class="c" x="722" y="82" rx="2" ry="2" width="12" height="12"/><rect class="c" x="722" y="98" rx="2" ry="2" width="12" height="12"/><rect class="c" x="738" y="2" rx="2" ry="2" width="12" height="12"/><rect class="c" x="738" y="18" rx="2" ry="2" width="12" height="12"/><rect class="c" x="738" y="34" rx="2" ry="2" width="12" height="12"/><rect class="c" x="738" y="50" rx="2" ry="2" width="12" height="12"/><rect class="c" x="738" y="66" rx="2" ry="2" width="12" height="12"/><rect class="c" x="738" y="82" rx="2" ry="2" width="12" height="12"/><rect class="c" x="738" y="98" rx="2" ry="2" width="12" height="12"/><rect class="c" x="754" y="2" rx="2" ry="2" width="12" height="12"/><rect class="c" x="754" y="18" rx="2" ry="2" width="12" height="12"/><rect class="c" x="754" y="34" rx="2" ry="2" width="12" height="12"/><rect class="c" x="754" y="50" rx="2" ry="2" width="12" height="12"/><rect class="c" x="754" y="66" rx="2" ry="2" width="12" height="12"/><rect class="c" x="754" y="82" rx="2" ry="2" width="12" height="12"/><rect class="c" x="754" y="98" rx="2" ry="2" width="12" height="12"/><rect class="c" x="770" y="2" rx="2" ry="2" width="12" height="12"/><rect class="c" x="770" y="18" rx="2" ry="2" width="12" height="12"/><rect class="c" x="770" y="34" rx="2" ry="2" width="12" height="12"/><rect class="c" x="770" y="50" rx="2" ry="2" width="12" height="12"/><rect class="c" x="770" y="66" rx="2" ry="2" width="12" height="12"/><rect class="c" x="770" y="82" rx="2" ry="2" width="12" height="12"/><rect class="c" x="770" y="98" rx="2" ry="2" width="12" height="12"/><rect class="c" x="786" y="2" rx="2" ry="2" width="12" height="12"/><rect class="c" x="786" y="18" rx="2" ry="2" width="12" height="12"/><rect class="c" x="786" y="34" rx="2" ry="2" width="12" height="12"/><rect class="c" x="786" y="50" rx="2" ry="2" width="12" height="12"/><rect class="c" x="786" y="66" rx="2" ry="2" width="12" height="12"/><rect class="c" x="786" y="82" rx="2" ry="2" width="12" height="12"/><rect class="c" x="786" y="98" rx="2" ry="2" width="12" height="12"/><rect class="c" x="802" y="2" rx="2" ry="2" width="12" height="12"/><rect class="c" x="802" y="18" rx="2" ry="2" width="12" height="12"/><rect class="c" x="802" y="34" rx="2" ry="2" width="12" height="12"/><rect class="c" x="802" y="50" rx="2" ry="2" width="12" height="12"/><rect class="c" x="802" y="66" rx="2" ry="2" width="12" height="12"/><rect class="c" x="802" y="82" rx="2" ry="2" width="12" height="12"/><rect class="c" x="802" y="98" rx="2" ry="2" width="12" height="12"/><rect class="c" x="818" y="2" rx="2" ry="2" width="12" height="12"/><rect class="c" x="818" y="18" rx="2" ry="2" width="12" height="12"/><rect class="c" x="818" y="34" rx="2" ry="2" width="12" height="12"/><rect class="c" x="818" y="50" rx="2" ry="2" width="12" height="12"/><rect class="c" x="818" y="66" rx="2" ry="2" width="12" height="12"/><rect class="c" x="818" y="82" rx="2" ry="2" width="12" height="12"/><rect class="c" x="818" y="98" rx="2" ry="2" width="12" height="12"/><rect class="c" x="834" y="2" rx="2" ry="2" width="12" height="12"/><rect class="c" x="834" y="18" rx="2" ry="2" width="12" height="12"/><rect class="c" x="834" y="34" rx="2" ry="2" width="12" height="12"/><rect class="c" x="834" y="50" rx="2" ry="2" width="12" height="12"/><rect class="c" x="834" y="66" rx="2" ry="2" width="12" height="12"/><rect class="c" x="834" y="82" rx="2" ry="2" width="12" height="12"/><rect class="u u0" height="12" width="455.6" x="0.0" y="144"/><rect class="u u1" height="12" width="104.0" x="455.0" y="144"/><rect class="u u2" height="12" width="104.0" x="558.4" y="144"/><rect class="u u3" height="12" width="186.7" x="661.9" y="144"/><rect class="s s0" x="0.8" y="0.8" width="14.4" height="14.4" rx="4.5" ry="4.5"/><rect class="s s1" x="1.8" y="1.8" width="12.3" height="12.3" rx="4.1" ry="4.1"/><rect class="s s2" x="2.6" y="2.6" width="10.8" height="10.8" rx="3.6" ry="3.6"/><rect class="s s3" x="3.0" y="3.0" width="9.9" height="9.9" rx="3.3" ry="3.3"/></svg>