<svg width="300" height="159" viewBox="0 0 300 159" fill="none" xmlns="http://www.w3.org/2000/svg">
<rect x="33" y="32" width="234" height="74" rx="23" fill="#05FF00" fill-opacity="0.85"/>
<path d="M59.5455 58.2273V55.7273H77V58.2273H69.6818V79H66.8636V58.2273H59.5455ZM85.7727 79.3636C84.0909 79.3636 82.6402 78.9924 81.4205 78.25C80.2083 77.5 79.2727 76.4545 78.6136 75.1136C77.9621 73.7652 77.6364 72.197 77.6364 70.4091C77.6364 68.6212 77.9621 67.0455 78.6136 65.6818C79.2727 64.3106 80.1894 63.2424 81.3636 62.4773C82.5455 61.7045 83.9242 61.3182 85.5 61.3182C86.4091 61.3182 87.3068 61.4697 88.1932 61.7727C89.0795 62.0758 89.8864 62.5682 90.6136 63.25C91.3409 63.9242 91.9205 64.8182 92.3523 65.9318C92.7841 67.0455 93 68.4167 93 70.0455V71.1818H79.5455V68.8636H90.2727C90.2727 67.8788 90.0758 67 89.6818 66.2273C89.2955 65.4545 88.7424 64.8447 88.0227 64.3977C87.3106 63.9508 86.4697 63.7273 85.5 63.7273C84.4318 63.7273 83.5076 63.9924 82.7273 64.5227C81.9545 65.0455 81.3598 65.7273 80.9432 66.5682C80.5265 67.4091 80.3182 68.3106 80.3182 69.2727V70.8182C80.3182 72.1364 80.5455 73.2538 81 74.1705C81.4621 75.0795 82.1023 75.7727 82.9205 76.25C83.7386 76.7197 84.6894 76.9545 85.7727 76.9545C86.4773 76.9545 87.1136 76.8561 87.6818 76.6591C88.2576 76.4545 88.7538 76.1515 89.1705 75.75C89.5871 75.3409 89.9091 74.8333 90.1364 74.2273L92.7273 74.9545C92.4545 75.8333 91.9962 76.6061 91.3523 77.2727C90.7083 77.9318 89.9129 78.447 88.9659 78.8182C88.0189 79.1818 86.9545 79.3636 85.7727 79.3636ZM98.6108 61.5455L102.793 68.6818L106.974 61.5455H110.065L104.429 70.2727L110.065 79H106.974L102.793 72.2273L98.6108 79H95.5199L101.065 70.2727L95.5199 61.5455H98.6108ZM121.483 61.5455V63.8182H112.438V61.5455H121.483ZM115.074 57.3636H117.756V74C117.756 74.7576 117.866 75.3258 118.085 75.7045C118.313 76.0758 118.6 76.3258 118.949 76.4545C119.305 76.5758 119.68 76.6364 120.074 76.6364C120.369 76.6364 120.612 76.6212 120.801 76.5909C120.991 76.553 121.142 76.5227 121.256 76.5L121.801 78.9091C121.619 78.9773 121.366 79.0455 121.04 79.1136C120.714 79.1894 120.301 79.2273 119.801 79.2273C119.044 79.2273 118.301 79.0644 117.574 78.7386C116.854 78.4129 116.256 77.9167 115.778 77.25C115.309 76.5833 115.074 75.7424 115.074 74.7273V57.3636ZM153.608 63H150.79C150.623 62.1894 150.331 61.4773 149.915 60.8636C149.506 60.25 149.006 59.7348 148.415 59.3182C147.831 58.8939 147.184 58.5758 146.472 58.3636C145.759 58.1515 145.017 58.0455 144.244 58.0455C142.835 58.0455 141.559 58.4015 140.415 59.1136C139.278 59.8258 138.373 60.875 137.699 62.2614C137.032 63.6477 136.699 65.3485 136.699 67.3636C136.699 69.3788 137.032 71.0795 137.699 72.4659C138.373 73.8523 139.278 74.9015 140.415 75.6136C141.559 76.3258 142.835 76.6818 144.244 76.6818C145.017 76.6818 145.759 76.5758 146.472 76.3636C147.184 76.1515 147.831 75.8371 148.415 75.4205C149.006 74.9962 149.506 74.4773 149.915 73.8636C150.331 73.2424 150.623 72.5303 150.79 71.7273H153.608C153.396 72.9167 153.009 73.9811 152.449 74.9205C151.888 75.8598 151.191 76.6591 150.358 77.3182C149.525 77.9697 148.589 78.4659 147.551 78.8068C146.521 79.1477 145.419 79.3182 144.244 79.3182C142.259 79.3182 140.494 78.8333 138.949 77.8636C137.403 76.8939 136.188 75.5152 135.301 73.7273C134.415 71.9394 133.972 69.8182 133.972 67.3636C133.972 64.9091 134.415 62.7879 135.301 61C136.188 59.2121 137.403 57.8333 138.949 56.8636C140.494 55.8939 142.259 55.4091 144.244 55.4091C145.419 55.4091 146.521 55.5795 147.551 55.9205C148.589 56.2614 149.525 56.7614 150.358 57.4205C151.191 58.072 151.888 58.8674 152.449 59.8068C153.009 60.7386 153.396 61.803 153.608 63ZM164.889 79.3636C163.313 79.3636 161.931 78.9886 160.741 78.2386C159.56 77.4886 158.635 76.4394 157.969 75.0909C157.31 73.7424 156.98 72.1667 156.98 70.3636C156.98 68.5455 157.31 66.9583 157.969 65.6023C158.635 64.2462 159.56 63.1932 160.741 62.4432C161.931 61.6932 163.313 61.3182 164.889 61.3182C166.465 61.3182 167.844 61.6932 169.026 62.4432C170.215 63.1932 171.139 64.2462 171.798 65.6023C172.465 66.9583 172.798 68.5455 172.798 70.3636C172.798 72.1667 172.465 73.7424 171.798 75.0909C171.139 76.4394 170.215 77.4886 169.026 78.2386C167.844 78.9886 166.465 79.3636 164.889 79.3636ZM164.889 76.9545C166.086 76.9545 167.071 76.6477 167.844 76.0341C168.616 75.4205 169.188 74.6136 169.56 73.6136C169.931 72.6136 170.116 71.5303 170.116 70.3636C170.116 69.197 169.931 68.1098 169.56 67.1023C169.188 66.0947 168.616 65.2803 167.844 64.6591C167.071 64.0379 166.086 63.7273 164.889 63.7273C163.692 63.7273 162.707 64.0379 161.935 64.6591C161.162 65.2803 160.59 66.0947 160.219 67.1023C159.848 68.1098 159.662 69.197 159.662 70.3636C159.662 71.5303 159.848 72.6136 160.219 73.6136C160.59 74.6136 161.162 75.4205 161.935 76.0341C162.707 76.6477 163.692 76.9545 164.889 76.9545ZM176.892 85.5455V61.5455H179.483V64.3182H179.801C179.998 64.0152 180.271 63.6288 180.619 63.1591C180.975 62.6818 181.483 62.2576 182.142 61.8864C182.809 61.5076 183.71 61.3182 184.847 61.3182C186.316 61.3182 187.612 61.6856 188.733 62.4205C189.854 63.1553 190.729 64.197 191.358 65.5455C191.987 66.8939 192.301 68.4848 192.301 70.3182C192.301 72.1667 191.987 73.7689 191.358 75.125C190.729 76.4735 189.858 77.5189 188.744 78.2614C187.631 78.9962 186.347 79.3636 184.892 79.3636C183.771 79.3636 182.873 79.178 182.199 78.8068C181.525 78.428 181.006 78 180.642 77.5227C180.278 77.0379 179.998 76.6364 179.801 76.3182H179.574V85.5455H176.892ZM179.528 70.2727C179.528 71.5909 179.722 72.7538 180.108 73.7614C180.494 74.7614 181.059 75.5455 181.801 76.1136C182.544 76.6742 183.453 76.9545 184.528 76.9545C185.65 76.9545 186.585 76.6591 187.335 76.0682C188.093 75.4697 188.661 74.6667 189.04 73.6591C189.426 72.6439 189.619 71.5152 189.619 70.2727C189.619 69.0455 189.43 67.9394 189.051 66.9545C188.68 65.9621 188.116 65.178 187.358 64.6023C186.608 64.0189 185.665 63.7273 184.528 63.7273C183.438 63.7273 182.521 64.0038 181.778 64.5568C181.036 65.1023 180.475 65.8674 180.097 66.8523C179.718 67.8295 179.528 68.9697 179.528 70.2727ZM196.392 79V61.5455H199.074V79H196.392ZM197.756 58.6364C197.233 58.6364 196.782 58.4583 196.403 58.1023C196.032 57.7462 195.847 57.3182 195.847 56.8182C195.847 56.3182 196.032 55.8902 196.403 55.5341C196.782 55.178 197.233 55 197.756 55C198.278 55 198.725 55.178 199.097 55.5341C199.475 55.8902 199.665 56.3182 199.665 56.8182C199.665 57.3182 199.475 57.7462 199.097 58.1023C198.725 58.4583 198.278 58.6364 197.756 58.6364ZM211.304 79.3636C209.622 79.3636 208.171 78.9924 206.952 78.25C205.74 77.5 204.804 76.4545 204.145 75.1136C203.493 73.7652 203.168 72.197 203.168 70.4091C203.168 68.6212 203.493 67.0455 204.145 65.6818C204.804 64.3106 205.721 63.2424 206.895 62.4773C208.077 61.7045 209.455 61.3182 211.031 61.3182C211.94 61.3182 212.838 61.4697 213.724 61.7727C214.611 62.0758 215.418 62.5682 216.145 63.25C216.872 63.9242 217.452 64.8182 217.884 65.9318C218.315 67.0455 218.531 68.4167 218.531 70.0455V71.1818H205.077V68.8636H215.804C215.804 67.8788 215.607 67 215.213 66.2273C214.827 65.4545 214.274 64.8447 213.554 64.3977C212.842 63.9508 212.001 63.7273 211.031 63.7273C209.963 63.7273 209.039 63.9924 208.259 64.5227C207.486 65.0455 206.891 65.7273 206.474 66.5682C206.058 67.4091 205.849 68.3106 205.849 69.2727V70.8182C205.849 72.1364 206.077 73.2538 206.531 74.1705C206.993 75.0795 207.634 75.7727 208.452 76.25C209.27 76.7197 210.221 76.9545 211.304 76.9545C212.009 76.9545 212.645 76.8561 213.213 76.6591C213.789 76.4545 214.285 76.1515 214.702 75.75C215.118 75.3409 215.44 74.8333 215.668 74.2273L218.259 74.9545C217.986 75.8333 217.527 76.6061 216.884 77.2727C216.24 77.9318 215.444 78.447 214.497 78.8182C213.55 79.1818 212.486 79.3636 211.304 79.3636ZM229.202 79.3636C227.747 79.3636 226.463 78.9962 225.349 78.2614C224.236 77.5189 223.365 76.4735 222.736 75.125C222.107 73.7689 221.793 72.1667 221.793 70.3182C221.793 68.4848 222.107 66.8939 222.736 65.5455C223.365 64.197 224.24 63.1553 225.361 62.4205C226.482 61.6856 227.777 61.3182 229.247 61.3182C230.384 61.3182 231.281 61.5076 231.94 61.8864C232.607 62.2576 233.115 62.6818 233.463 63.1591C233.819 63.6288 234.096 64.0152 234.293 64.3182H234.52V55.7273H237.202V79H234.611V76.3182H234.293C234.096 76.6364 233.815 77.0379 233.452 77.5227C233.088 78 232.569 78.428 231.895 78.8068C231.221 79.178 230.323 79.3636 229.202 79.3636ZM229.565 76.9545C230.641 76.9545 231.55 76.6742 232.293 76.1136C233.035 75.5455 233.599 74.7614 233.986 73.7614C234.372 72.7538 234.565 71.5909 234.565 70.2727C234.565 68.9697 234.376 67.8295 233.997 66.8523C233.618 65.8674 233.058 65.1023 232.315 64.5568C231.573 64.0038 230.656 63.7273 229.565 63.7273C228.429 63.7273 227.482 64.0189 226.724 64.6023C225.974 65.178 225.41 65.9621 225.031 66.9545C224.66 67.9394 224.474 69.0455 224.474 70.2727C224.474 71.5152 224.664 72.6439 225.043 73.6591C225.429 74.6667 225.997 75.4697 226.747 76.0682C227.505 76.6591 228.444 76.9545 229.565 76.9545Z" fill="white"/>
<path d="M149.887 138.25L166.775 106H133L149.887 138.25Z" fill="#05FF00" fill-opacity="0.85"/>
</svg>
